<svg xmlns="http://www.w3.org/2000/svg" viewBox="0 0 220 220" role="img" aria-labelledby="title desc">
  <title id="title">American University of Beirut Logo</title>
  <desc id="desc">Maroon circular emblem with cedar tree and AUB text.</desc>
  <rect width="220" height="220" fill="#8b0038" />
  <circle cx="110" cy="110" r="86" fill="none" stroke="#ffffff" stroke-width="10" />
  <circle cx="110" cy="110" r="72" fill="none" stroke="#ffffff" stroke-width="2.5" />
  <path
    fill="#ffffff"
    d="M110 58l-9 12h5l-12 14h8l-14 15h9l-16 18h18v9h-21c1-6 6-13 11-19h-7l13-14h-8l12-13h-7l13-15h-6l11-13zm0 0l9 12h-5l12 14h-8l14 15h-9l16 18h-18v9h21c-1-6-6-13-11-19h7l-13-14h8l-12-13h7l-13-15h6l-11-13z"
  />
  <rect x="100" y="124" width="20" height="27" fill="#ffffff" />
  <text x="110" y="34" text-anchor="middle" font-size="11" fill="#ffffff" font-family="Arial, sans-serif">AUB</text>
  <text x="110" y="195" text-anchor="middle" font-size="11" fill="#ffffff" font-family="Arial, sans-serif">1866</text>
</svg>
