<?xml version="1.0" encoding="UTF-8" standalone="no"?>
<!-- Created with Inkscape (http://www.inkscape.org/) -->

<svg
   width="177.80003mm"
   height="30.650038mm"
   viewBox="0 0 177.80003 30.650038"
   version="1.1"
   id="svg1"
   xmlns="http://www.w3.org/2000/svg"
   xmlns:svg="http://www.w3.org/2000/svg">
  <defs
     id="defs1">
    <clipPath
       clipPathUnits="userSpaceOnUse"
       id="clipPath93">
      <path
         d="M 0,0 H 612 V 792 H 0 Z"
         transform="translate(-226.92121,-397.08001)"
         id="path93" />
    </clipPath>
    <clipPath
       clipPathUnits="userSpaceOnUse"
       id="clipPath95">
      <path
         d="M 0,0 H 612 V 792 H 0 Z"
         transform="translate(-189.6478,-393.04481)"
         id="path95" />
    </clipPath>
    <clipPath
       clipPathUnits="userSpaceOnUse"
       id="clipPath97">
      <path
         d="M 0,0 H 612 V 792 H 0 Z"
         transform="translate(-257.81961,-412.57601)"
         id="path97" />
    </clipPath>
    <clipPath
       clipPathUnits="userSpaceOnUse"
       id="clipPath99">
      <path
         d="M 0,0 H 612 V 792 H 0 Z"
         transform="translate(-270.11841,-410.02501)"
         id="path99" />
    </clipPath>
    <clipPath
       clipPathUnits="userSpaceOnUse"
       id="clipPath105">
      <path
         d="M 0,0 H 612 V 792 H 0 Z"
         transform="translate(-298.8148,-409.10151)"
         id="path105" />
    </clipPath>
    <clipPath
       clipPathUnits="userSpaceOnUse"
       id="clipPath107">
      <path
         d="M 0,0 H 612 V 792 H 0 Z"
         transform="translate(-310.15181,-407.68851)"
         id="path107" />
    </clipPath>
    <clipPath
       clipPathUnits="userSpaceOnUse"
       id="clipPath112">
      <path
         d="M 0,0 H 612 V 792 H 0 Z"
         transform="translate(-339.07031,-406.03111)"
         id="path112" />
    </clipPath>
    <clipPath
       clipPathUnits="userSpaceOnUse"
       id="clipPath116">
      <path
         d="M 0,0 H 612 V 792 H 0 Z"
         transform="translate(-277.24641,-392.58751)"
         id="path116" />
    </clipPath>
    <clipPath
       clipPathUnits="userSpaceOnUse"
       id="clipPath118">
      <path
         d="M 0,0 H 612 V 792 H 0 Z"
         transform="translate(-281.50381,-395.65801)"
         id="path118" />
    </clipPath>
    <clipPath
       clipPathUnits="userSpaceOnUse"
       id="clipPath123">
      <path
         d="M 0,0 H 612 V 792 H 0 Z"
         transform="translate(-311.45561,-395.65801)"
         id="path123" />
    </clipPath>
    <clipPath
       clipPathUnits="userSpaceOnUse"
       id="clipPath126">
      <path
         d="M 0,0 H 612 V 792 H 0 Z"
         transform="translate(-330.45771,-395.65801)"
         id="path126" />
    </clipPath>
    <clipPath
       clipPathUnits="userSpaceOnUse"
       id="clipPath128">
      <path
         d="M 0,0 H 612 V 792 H 0 Z"
         transform="translate(-338.03421,-395.65801)"
         id="path128" />
    </clipPath>
    <clipPath
       clipPathUnits="userSpaceOnUse"
       id="clipPath133">
      <path
         d="M 0,0 H 612 V 792 H 0 Z"
         transform="translate(-362.35441,-394.24501)"
         id="path133" />
    </clipPath>
    <clipPath
       clipPathUnits="userSpaceOnUse"
       id="clipPath136">
      <path
         d="M 0,0 H 612 V 792 H 0 Z"
         transform="translate(-381.67611,-394.17821)"
         id="path136" />
    </clipPath>
    <clipPath
       clipPathUnits="userSpaceOnUse"
       id="clipPath138">
      <path
         d="M 0,0 H 612 V 792 H 0 Z"
         transform="translate(-390.02681,-392.58751)"
         id="path138" />
    </clipPath>
    <clipPath
       clipPathUnits="userSpaceOnUse"
       id="clipPath141">
      <path
         d="M 0,0 H 612 V 792 H 0 Z"
         transform="translate(-405.77281,-396.58151)"
         id="path141" />
    </clipPath>
    <clipPath
       clipPathUnits="userSpaceOnUse"
       id="clipPath143">
      <path
         d="M 0,0 H 612 V 792 H 0 Z"
         transform="translate(-412.36361,-388.59361)"
         id="path143" />
    </clipPath>
    <clipPath
       clipPathUnits="userSpaceOnUse"
       id="clipPath145">
      <path
         d="M 0,0 H 612 V 792 H 0 Z"
         transform="translate(-417.61431,-395.65801)"
         id="path145" />
    </clipPath>
  </defs>
  <g
     id="layer1"
     transform="translate(-16.139576,-127.27499)">
    <g
       id="g90"
       transform="matrix(0.52916666,0,0,0.52916666,-110.86024,-134.1404)">
      <path
         id="path91"
         d="m 0,0 -6.919,-34.143 h 6.015 l 4.631,22.391 3.404,-12.572 h 5.756 L 19.708,9.298 H 13.917 L 9.678,-11.903 5.789,0 Z"
         style="fill:#094a3e;fill-opacity:1;fill-rule:nonzero;stroke:none"
         transform="matrix(1.3333333,0,0,-1.3333333,272.65853,506.41067)" />
      <path
         id="path92"
         d="M 0,0 0.583,2.839 3.175,2.84 C 4.786,2.831 5.972,2.033 5.847,-0.051 5.677,-2.84 3.55,-3.868 2.592,-3.856 H -0.793 L 0,0 -5.631,1.757 -7.879,-9.212 H 3.154 c 3.439,0.011 8.272,3.137 8.624,8.629 0.288,4.464 -1.03,5.689 -2.975,7.115 1.388,1.324 1.757,2.253 1.71,4.339 -0.055,2.47 -1.763,4.197 -3.662,4.241 H -2.894 L -3.85,10.447 1.888,9.296 2.267,11.152 3.635,11.153 C 4.58,11.044 5.01,10.366 4.936,9.549 4.792,7.992 3.691,7.145 2.724,7.134 H 1.446 l 0.442,2.162 -5.738,1.151 -1.781,-8.69 z"
         style="fill:#094a3e;fill-opacity:1;fill-rule:nonzero;stroke:none"
         transform="matrix(1.3333333,0,0,-1.3333333,302.5616,526.56)"
         clip-path="url(#clipPath93)" />
      <path
         id="path94"
         d="m 0,0 c -1.436,0 -3.394,0.358 -3.136,1.854 l 3.688,17.353 h -6.103 c 0,0 -3.346,-15.737 -4.007,-18.849 -0.661,-3.113 2.339,-6.164 8.265,-6.164 5.924,0 9.78,2.932 10.489,6.285 0.713,3.35 3.982,18.728 3.982,18.728 H 7.015 L 3.339,1.914 C 3,0.598 1.436,0 0,0"
         style="fill:#094a3e;fill-opacity:1;fill-rule:nonzero;stroke:none"
         transform="matrix(1.3333333,0,0,-1.3333333,252.86373,531.94027)"
         clip-path="url(#clipPath95)" />
      <path
         id="path96"
         d="m 0,0 c -5.23,0.672 -15.736,-1.648 -18.046,-12.517 -2.31,-10.868 7.486,-13.615 12.781,-12.821 l 1.532,7.205 c -5.131,-1.16 -8.81,0.488 -7.706,5.678 1.09,5.129 5.779,7.082 10.028,6.106 L 0,0"
         style="fill:#094a3e;fill-opacity:1;fill-rule:nonzero;stroke:none"
         transform="matrix(1.3333333,0,0,-1.3333333,343.75947,505.89867)"
         clip-path="url(#clipPath97)" />
      <path
         id="path98"
         d="M 0,0 -1.102,-5.185 C -1.449,-6.82 -2.766,-8.2 -4.958,-8.2 c -2.147,0 -2.778,1.38 -2.461,2.871 L -6.286,0 h 1.079 l -1.069,-5.029 c -0.368,-1.735 0.587,-2.214 1.555,-2.214 0.99,0 2.199,0.456 2.568,2.192 L -1.079,0 Z"
         style="fill:#094a3e;fill-opacity:1;fill-rule:nonzero;stroke:none"
         transform="matrix(1.3333333,0,0,-1.3333333,360.15787,509.3)"
         clip-path="url(#clipPath99)" />
      <path
         id="path100"
         d="m 0,0 h 1.046 l -1.698,-7.988 h -1.213 l -2.689,6.453 H -4.576 L -5.948,-7.988 H -6.994 L -5.296,0 h 1.28 l 2.622,-6.453 h 0.022 z"
         style="fill:#094a3e;fill-opacity:1;fill-rule:nonzero;stroke:none"
         transform="matrix(1.3333333,0,0,-1.3333333,369.5032,509.3)" />
      <path
         id="path101"
         d="M 0,0 H -1.079 L 0.619,7.988 H 1.698 Z"
         style="fill:#094a3e;fill-opacity:1;fill-rule:nonzero;stroke:none"
         transform="matrix(1.3333333,0,0,-1.3333333,372.54987,519.9512)" />
      <path
         id="path102"
         d="M 0,0 H 1.213 L -3.4,-7.988 H -4.546 L -5.763,0 h 1.201 l 0.834,-6.809 h 0.022 z"
         style="fill:#094a3e;fill-opacity:1;fill-rule:nonzero;stroke:none"
         transform="matrix(1.3333333,0,0,-1.3333333,384.12947,509.3)" />
      <path
         id="path103"
         d="m 0,0 h -5.897 l 1.698,7.988 H 1.62 L 1.417,7.032 h -4.74 L -3.843,4.584 H 0.529 L 0.326,3.627 h -4.373 l -0.567,-2.67 h 4.817 z"
         style="fill:#094a3e;fill-opacity:1;fill-rule:nonzero;stroke:none"
         transform="matrix(1.3333333,0,0,-1.3333333,392.9168,519.9512)" />
      <path
         id="path104"
         d="M 0,0 H 2.692 C 3.226,0 4.106,-0.1 3.844,-1.335 3.593,-2.514 2.716,-2.714 1.926,-2.714 h -2.503 z m -0.773,-3.638 h 2.614 c 1.291,0 1.261,-0.768 1.122,-1.424 -0.064,-0.3 -0.289,-1.513 -0.237,-2.003 H 4.05 l 0.038,0.178 c -0.294,0.189 -0.314,0.356 -0.23,0.802 l 0.24,1.445 c 0.192,1.113 -0.221,1.313 -0.637,1.503 0.575,0.3 1.268,0.734 1.519,1.913 0.359,1.691 -0.856,2.148 -2.169,2.148 h -3.694 l -1.698,-7.989 h 1.079 z"
         style="fill:#094a3e;fill-opacity:1;fill-rule:nonzero;stroke:none"
         transform="matrix(1.3333333,0,0,-1.3333333,398.41973,510.53133)"
         clip-path="url(#clipPath105)" />
      <path
         id="path106"
         d="m 0,0 c 0.207,1.235 -0.734,1.624 -1.635,1.624 -0.679,0 -1.865,-0.189 -2.123,-1.402 -0.144,-0.678 0.287,-0.9 0.731,-1.012 l 2.169,-0.523 C 0.125,-1.557 0.771,-2.18 0.501,-3.449 0.1,-5.34 -1.769,-5.863 -3.138,-5.863 c -1.48,0 -1.963,0.445 -2.251,0.767 -0.549,0.613 -0.54,1.28 -0.382,2.026 h 1.013 c -0.308,-1.447 0.782,-1.869 1.805,-1.869 0.779,0 2.134,0.2 2.378,1.346 0.177,0.834 -0.155,1.101 -1.402,1.413 l -1.555,0.378 c -0.496,0.122 -1.598,0.489 -1.302,1.88 0.265,1.246 1.337,2.47 3.273,2.47 2.792,0 2.715,-1.669 2.573,-2.548 z"
         style="fill:#094a3e;fill-opacity:1;fill-rule:nonzero;stroke:none"
         transform="matrix(1.3333333,0,0,-1.3333333,413.53573,512.41533)"
         clip-path="url(#clipPath107)" />
      <path
         id="path108"
         d="M 0,0 H -1.079 L 0.619,7.988 H 1.698 Z"
         style="fill:#094a3e;fill-opacity:1;fill-rule:nonzero;stroke:none"
         transform="matrix(1.3333333,0,0,-1.3333333,417.06613,519.9512)" />
      <path
         id="path109"
         d="M 0,0 H 6.486 L 6.282,-0.957 H 3.579 L 2.084,-7.988 H 1.005 L 2.5,-0.957 h -2.704 z"
         style="fill:#094a3e;fill-opacity:1;fill-rule:nonzero;stroke:none"
         transform="matrix(1.3333333,0,0,-1.3333333,420.8732,509.3)" />
      <path
         id="path110"
         d="m 0,0 h -1.08 l 0.684,3.215 -2,4.773 h 1.257 L 0.337,4.15 3.445,7.988 H 4.713 L 0.683,3.215 Z"
         style="fill:#094a3e;fill-opacity:1;fill-rule:nonzero;stroke:none"
         transform="matrix(1.3333333,0,0,-1.3333333,433.1316,519.9512)" />
      <path
         id="path111"
         d="m 0,0 c -0.4,-1.88 -1.736,-3.249 -3.472,-3.249 -1.736,0 -2.491,1.369 -2.091,3.249 0.4,1.88 1.737,3.248 3.472,3.248 C -0.355,3.248 0.4,1.88 0,0 m 1.113,0 c 0.366,1.724 -0.019,4.205 -3,4.205 -2.982,0 -4.422,-2.481 -4.788,-4.205 -0.367,-1.725 0.018,-4.206 3,-4.206 2.981,0 4.421,2.481 4.788,4.206"
         style="fill:#094a3e;fill-opacity:1;fill-rule:nonzero;stroke:none"
         transform="matrix(1.3333333,0,0,-1.3333333,452.09373,514.6252)"
         clip-path="url(#clipPath112)" />
      <path
         id="path113"
         d="m 0,0 h -1.08 l 1.698,7.988 h 5.53 L 5.945,7.032 H 1.494 L 0.974,4.584 H 4.89 L 4.687,3.627 H 0.771 Z"
         style="fill:#094a3e;fill-opacity:1;fill-rule:nonzero;stroke:none"
         transform="matrix(1.3333333,0,0,-1.3333333,455.73867,519.9512)" />
      <path
         id="path114"
         d="m 0,0 h 1.046 l -1.698,-7.988 h -1.213 l -2.689,6.453 H -4.576 L -5.948,-7.988 H -6.994 L -5.296,0 h 1.28 l 2.622,-6.453 h 0.022 z"
         style="fill:#094a3e;fill-opacity:1;fill-rule:nonzero;stroke:none"
         transform="matrix(1.3333333,0,0,-1.3333333,358.79333,527.22467)" />
      <path
         id="path115"
         d="m 0,0 c -0.4,-1.88 -1.736,-3.249 -3.472,-3.249 -1.736,0 -2.491,1.369 -2.091,3.249 0.4,1.88 1.737,3.249 3.472,3.249 C -0.355,3.249 0.4,1.88 0,0 m 1.113,0 c 0.366,1.724 -0.019,4.206 -3,4.206 -2.982,0 -4.422,-2.482 -4.788,-4.206 -0.367,-1.725 0.018,-4.206 3,-4.206 2.981,0 4.421,2.481 4.788,4.206"
         style="fill:#094a3e;fill-opacity:1;fill-rule:nonzero;stroke:none"
         transform="matrix(1.3333333,0,0,-1.3333333,369.66187,532.55)"
         clip-path="url(#clipPath116)" />
      <path
         id="path117"
         d="M 0,0 H 2.692 C 3.226,0 4.106,-0.1 3.844,-1.335 3.593,-2.514 2.716,-2.714 1.926,-2.714 h -2.503 z m -0.773,-3.638 h 2.614 c 1.291,0 1.261,-0.767 1.121,-1.424 -0.063,-0.3 -0.288,-1.513 -0.236,-2.002 H 4.05 l 0.038,0.177 c -0.294,0.189 -0.314,0.356 -0.23,0.802 l 0.24,1.446 c 0.192,1.113 -0.222,1.313 -0.637,1.502 0.575,0.3 1.268,0.734 1.519,1.913 0.359,1.691 -0.856,2.148 -2.169,2.148 h -3.694 l -1.698,-7.988 h 1.079 z"
         style="fill:#094a3e;fill-opacity:1;fill-rule:nonzero;stroke:none"
         transform="matrix(1.3333333,0,0,-1.3333333,375.3384,528.456)"
         clip-path="url(#clipPath118)" />
      <path
         id="path119"
         d="M 0,0 H 6.486 L 6.283,-0.957 H 3.579 L 2.085,-7.988 H 1.006 L 2.5,-0.957 h -2.703 z"
         style="fill:#094a3e;fill-opacity:1;fill-rule:nonzero;stroke:none"
         transform="matrix(1.3333333,0,0,-1.3333333,383.3316,527.22467)" />
      <path
         id="path120"
         d="m 0,0 h 1.079 l -1.698,-7.988 h -1.079 l 0.792,3.727 H -5.078 L -5.87,-7.988 H -6.949 L -5.251,0 h 1.079 l -0.702,-3.304 h 4.172 z"
         style="fill:#094a3e;fill-opacity:1;fill-rule:nonzero;stroke:none"
         transform="matrix(1.3333333,0,0,-1.3333333,400.3312,527.22467)" />
      <path
         id="path121"
         d="m 0,0 h -5.896 l 1.698,7.988 H 1.62 L 1.417,7.031 H -3.322 L -3.843,4.584 H 0.53 L 0.326,3.627 H -4.046 L -4.614,0.956 h 4.818 z"
         style="fill:#094a3e;fill-opacity:1;fill-rule:nonzero;stroke:none"
         transform="matrix(1.3333333,0,0,-1.3333333,409.7708,537.8752)" />
      <path
         id="path122"
         d="M 0,0 H 2.692 C 3.227,0 4.107,-0.1 3.844,-1.335 3.593,-2.514 2.716,-2.714 1.926,-2.714 h -2.503 z m -0.773,-3.638 h 2.614 c 1.291,0 1.261,-0.767 1.121,-1.424 -0.063,-0.3 -0.288,-1.513 -0.236,-2.002 H 4.05 l 0.038,0.177 c -0.294,0.189 -0.314,0.356 -0.23,0.802 l 0.24,1.446 c 0.192,1.113 -0.221,1.313 -0.637,1.502 0.575,0.3 1.269,0.734 1.519,1.913 0.36,1.691 -0.856,2.148 -2.169,2.148 h -3.694 l -1.698,-7.988 h 1.079 z"
         style="fill:#094a3e;fill-opacity:1;fill-rule:nonzero;stroke:none"
         transform="matrix(1.3333333,0,0,-1.3333333,415.27413,528.456)"
         clip-path="url(#clipPath123)" />
      <path
         id="path124"
         d="m 0,0 h 1.046 l -1.698,-7.988 h -1.213 l -2.689,6.453 H -4.576 L -5.948,-7.988 H -6.994 L -5.295,0 h 1.279 l 2.622,-6.453 h 0.022 z"
         style="fill:#094a3e;fill-opacity:1;fill-rule:nonzero;stroke:none"
         transform="matrix(1.3333333,0,0,-1.3333333,431.68973,527.22467)" />
      <path
         id="path125"
         d="M 0,0 H 1.958 C 3.16,0 3.526,-0.423 3.367,-1.168 3.159,-2.147 2.459,-2.459 1.424,-2.459 h -1.946 z m -2.581,-7.064 h 3.438 c 1.769,0 2.944,1.079 3.216,2.358 0.291,1.369 -0.554,1.736 -1.033,1.947 0.967,0.412 1.312,1.146 1.423,1.669 C 4.695,0 4.124,0.924 2.633,0.924 h -3.516 z m 1.871,3.727 h 2.126 c 0.879,0 1.821,-0.223 1.583,-1.347 C 2.81,-5.574 2.121,-6.141 0.998,-6.141 h -2.303 z"
         style="fill:#094a3e;fill-opacity:1;fill-rule:nonzero;stroke:none"
         transform="matrix(1.3333333,0,0,-1.3333333,440.61027,528.456)"
         clip-path="url(#clipPath126)" />
      <path
         id="path127"
         d="M 0,0 H 2.692 C 3.227,0 4.106,-0.1 3.844,-1.335 3.593,-2.514 2.716,-2.714 1.926,-2.714 h -2.503 z m -0.774,-3.638 h 2.615 c 1.291,0 1.261,-0.767 1.121,-1.424 -0.064,-0.3 -0.288,-1.513 -0.236,-2.002 H 4.05 l 0.038,0.177 c -0.294,0.189 -0.314,0.356 -0.23,0.802 l 0.24,1.446 c 0.192,1.113 -0.221,1.313 -0.637,1.502 0.575,0.3 1.268,0.734 1.519,1.913 0.36,1.691 -0.856,2.148 -2.169,2.148 h -3.694 l -1.698,-7.988 h 1.079 z"
         style="fill:#094a3e;fill-opacity:1;fill-rule:nonzero;stroke:none"
         transform="matrix(1.3333333,0,0,-1.3333333,450.71227,528.456)"
         clip-path="url(#clipPath128)" />
      <path
         id="path129"
         d="M 0,0 H -1.079 L 0.619,7.988 H 1.698 Z"
         style="fill:#094a3e;fill-opacity:1;fill-rule:nonzero;stroke:none"
         transform="matrix(1.3333333,0,0,-1.3333333,459.4644,537.8752)" />
      <path
         id="path130"
         d="M 0,0 H 6.487 L 6.283,-0.957 H 3.58 L 2.085,-7.988 H 1.006 l 1.495,7.031 h -2.704 z"
         style="fill:#094a3e;fill-opacity:1;fill-rule:nonzero;stroke:none"
         transform="matrix(1.3333333,0,0,-1.3333333,463.27093,527.22467)" />
      <path
         id="path131"
         d="M 0,0 H -1.079 L 0.619,7.988 H 1.698 Z"
         style="fill:#094a3e;fill-opacity:1;fill-rule:nonzero;stroke:none"
         transform="matrix(1.3333333,0,0,-1.3333333,472.6516,537.8752)" />
      <path
         id="path132"
         d="m 0,0 c 0.207,1.235 -0.734,1.625 -1.635,1.625 -0.679,0 -1.865,-0.19 -2.122,-1.403 -0.145,-0.678 0.286,-0.9 0.73,-1.012 l 2.17,-0.523 C 0.125,-1.557 0.771,-2.18 0.502,-3.449 0.1,-5.34 -1.769,-5.863 -3.138,-5.863 c -1.48,0 -1.963,0.445 -2.251,0.768 -0.548,0.612 -0.54,1.279 -0.381,2.025 h 1.012 c -0.307,-1.447 0.782,-1.87 1.806,-1.87 0.778,0 2.134,0.201 2.377,1.347 0.178,0.834 -0.155,1.101 -1.402,1.413 l -1.555,0.378 c -0.496,0.122 -1.598,0.489 -1.302,1.88 0.265,1.246 1.337,2.47 3.273,2.47 2.792,0 2.716,-1.669 2.573,-2.548 z"
         style="fill:#094a3e;fill-opacity:1;fill-rule:nonzero;stroke:none"
         transform="matrix(1.3333333,0,0,-1.3333333,483.1392,530.34)"
         clip-path="url(#clipPath133)" />
      <path
         id="path134"
         d="m 0,0 h 1.079 l -1.698,-7.988 h -1.079 l 0.792,3.727 H -5.078 L -5.87,-7.988 H -6.949 L -5.251,0 h 1.079 l -0.702,-3.304 h 4.172 z"
         style="fill:#094a3e;fill-opacity:1;fill-rule:nonzero;stroke:none"
         transform="matrix(1.3333333,0,0,-1.3333333,494.28907,527.22467)" />
      <path
         id="path135"
         d="m 0,0 c -0.002,1.402 -1.116,1.658 -1.884,1.658 -1.446,0 -2.842,-1.068 -3.288,-3.171 -0.4,-1.88 -0.04,-3.326 1.94,-3.326 0.701,0 1.985,0.333 2.747,2.191 h 1.046 c -1.086,-3.015 -3.562,-3.148 -4.163,-3.148 -1.813,0 -3.342,1.179 -2.69,4.249 0.523,2.459 2.286,4.162 4.611,4.162 2.059,0 2.855,-1.28 2.727,-2.615 z"
         style="fill:#094a3e;fill-opacity:1;fill-rule:nonzero;stroke:none"
         transform="matrix(1.3333333,0,0,-1.3333333,508.90147,530.42907)"
         clip-path="url(#clipPath136)" />
      <path
         id="path137"
         d="m 0,0 c -0.4,-1.88 -1.736,-3.249 -3.472,-3.249 -1.735,0 -2.49,1.369 -2.091,3.249 0.4,1.88 1.737,3.249 3.472,3.249 C -0.355,3.249 0.399,1.88 0,0 m 1.113,0 c 0.366,1.724 -0.019,4.206 -3,4.206 -2.982,0 -4.421,-2.482 -4.788,-4.206 -0.367,-1.725 0.018,-4.206 3,-4.206 2.981,0 4.421,2.481 4.788,4.206"
         style="fill:#094a3e;fill-opacity:1;fill-rule:nonzero;stroke:none"
         transform="matrix(1.3333333,0,0,-1.3333333,520.03573,532.55)"
         clip-path="url(#clipPath138)" />
      <path
         id="path139"
         d="M 0,0 H 4.05 L 3.847,-0.956 h -5.129 l 1.698,7.988 h 1.079 z"
         style="fill:#094a3e;fill-opacity:1;fill-rule:nonzero;stroke:none"
         transform="matrix(1.3333333,0,0,-1.3333333,523.80293,536.60013)" />
      <path
         id="path140"
         d="M 0,0 -1.102,-5.185 C -1.45,-6.82 -2.767,-8.2 -4.958,-8.2 c -2.147,0 -2.778,1.38 -2.461,2.871 L -6.286,0 h 1.079 l -1.069,-5.029 c -0.369,-1.735 0.587,-2.214 1.555,-2.214 0.99,0 2.199,0.456 2.568,2.192 L -1.079,0 Z"
         style="fill:#094a3e;fill-opacity:1;fill-rule:nonzero;stroke:none"
         transform="matrix(1.3333333,0,0,-1.3333333,541.0304,527.22467)"
         clip-path="url(#clipPath141)" />
      <path
         id="path142"
         d="M 0,0 1.003,4.717 C 1.052,4.951 1.29,5.963 1.448,6.708 H 1.426 L -2.248,0 H -3.315 L -4.139,6.697 H -4.161 C -4.318,5.963 -4.511,4.951 -4.56,4.717 L -5.563,0 h -1.046 l 1.698,7.988 h 1.547 l 0.845,-6.753 h 0.022 L 1.208,7.988 H 2.743 L 1.046,0 Z"
         style="fill:#094a3e;fill-opacity:1;fill-rule:nonzero;stroke:none"
         transform="matrix(1.3333333,0,0,-1.3333333,549.81813,537.8752)"
         clip-path="url(#clipPath143)" />
      <path
         id="path144"
         d="M 0,0 H 1.958 C 3.16,0 3.526,-0.423 3.368,-1.168 3.159,-2.147 2.459,-2.459 1.424,-2.459 h -1.947 z m -2.581,-7.064 h 3.438 c 1.769,0 2.944,1.079 3.216,2.358 0.291,1.369 -0.554,1.736 -1.033,1.947 0.967,0.412 1.312,1.146 1.423,1.669 C 4.695,0 4.124,0.924 2.633,0.924 h -3.516 z m 1.871,3.727 h 2.126 c 0.879,0 1.821,-0.223 1.583,-1.347 -0.19,-0.89 -0.878,-1.457 -2.001,-1.457 h -2.303 z"
         style="fill:#094a3e;fill-opacity:1;fill-rule:nonzero;stroke:none"
         transform="matrix(1.3333333,0,0,-1.3333333,556.81907,528.456)"
         clip-path="url(#clipPath145)" />
      <path
         id="path146"
         d="M 0,0 H -1.079 L 0.619,7.988 H 1.698 Z"
         style="fill:#094a3e;fill-opacity:1;fill-rule:nonzero;stroke:none"
         transform="matrix(1.3333333,0,0,-1.3333333,564.9632,537.8752)" />
      <path
         id="path147"
         d="M 0,0 2.027,3.516 H 2.049 L 2.481,0 Z M 2.667,-0.956 2.963,-3.281 H 4.142 L 2.948,4.706 H 1.724 l -4.702,-7.987 h 1.112 l 1.329,2.325 z"
         style="fill:#094a3e;fill-opacity:1;fill-rule:nonzero;stroke:none"
         transform="matrix(1.3333333,0,0,-1.3333333,570.47707,533.49987)" />
    </g>
  </g>
</svg>
